HIERARCHY
ROOT Hips
{
	OFFSET 0.00000 0.00000 0.00000
	CHANNELS 6 Xposition Yposition Zposition Zrotation Yrotation Xrotation 
	JOINT LHipJoint
	{
		OFFSET 0 0 0
		CHANNELS 3 Zrotation Yrotation Xrotation
		JOINT LeftHip
		{
			OFFSET 1.58161 -1.81893 0.78828
			CHANNELS 3 Zrotation Yrotation Xrotation
			JOINT LeftKnee
			{
				OFFSET 2.53374 -6.96141 0.00000
				CHANNELS 3 Zrotation Yrotation Xrotation
				JOINT LeftAnkle
				{
					OFFSET 2.63509 -7.23986 0.00000
					CHANNELS 3 Zrotation Yrotation Xrotation
					JOINT LeftToe
					{
						OFFSET 0.14115 -0.38781 2.05350
						CHANNELS 3 Zrotation Yrotation Xrotation
						End Site
						{
							OFFSET 0.00000 -0.00000 1.05543
						}
					}
				}
			}
		}
	}
	JOINT RHipJoint
	{
		OFFSET 0 0 0
		CHANNELS 3 Zrotation Yrotation Xrotation
		JOINT RightHip
		{
			OFFSET -1.11138 -1.81893 0.78828
			CHANNELS 3 Zrotation Yrotation Xrotation
			JOINT RightKnee
			{
				OFFSET -2.58392 -7.09926 0.00000
				CHANNELS 3 Zrotation Yrotation Xrotation
				JOINT RightAnkle
				{
					OFFSET -2.66423 -7.31992 0.00000
					CHANNELS 3 Zrotation Yrotation Xrotation
					JOINT RightToe
					{
						OFFSET -0.18831 -0.51739 2.12114
						CHANNELS 3 Zrotation Yrotation Xrotation
						End Site
						{
							OFFSET -0.00000 -0.00000 1.09845
						}
					}
				}
			}
		}
	}
	JOINT lowerback
	{
		OFFSET 0 0 0
		CHANNELS 3 Zrotation Yrotation Xrotation
		JOINT Chest
		{
			OFFSET -0.01511 1.97958 -0.08829
			CHANNELS 3 Zrotation Yrotation Xrotation
			JOINT Chest2
			{
				OFFSET 0.08344 1.97334 -0.04330
				CHANNELS 3 Zrotation Yrotation Xrotation
				JOINT lowerneck
				{
					OFFSET 0 0 0
					CHANNELS 3 Zrotation Yrotation Xrotation
					JOINT Neck
					{
						OFFSET 0.00559 1.76246 0.31246
						CHANNELS 3 Zrotation Yrotation Xrotation
						JOINT Head
						{
							OFFSET -0.07011 1.80354 -0.30524
							CHANNELS 3 Zrotation Yrotation Xrotation
							End Site
							{
								OFFSET -0.02385 1.83547 -0.13906
							}
						}
					}
				}
				JOINT LeftCollar
				{
					OFFSET 0 0 0
					CHANNELS 3 Zrotation Yrotation Xrotation
					JOINT LeftShoulder
					{
						OFFSET 3.20667 1.30156 -0.60240
CHANNELS 3 Zrotation Xrotation Yrotation
						JOINT LeftElbow
						{
OFFSET 0 -4.956630 0.000000
CHANNELS 3 Zrotation Xrotation Yrotation
							JOINT LeftWrist
							{
OFFSET 0 -3.381770 0.000000
CHANNELS 3 Zrotation Xrotation Yrotation
								JOINT lhand
								{
									OFFSET 0 0 0
CHANNELS 3 Zrotation Xrotation Yrotation
									JOINT LFingers
									{
OFFSET 0 -0.662910 0.000000
CHANNELS 3 Zrotation Xrotation Yrotation
										End Site
										{
OFFSET 0 -0.534450 0.000000
										}
									}
								}
								JOINT LThumb
								{
OFFSET 0 0.000000 0.000000
CHANNELS 3 Zrotation Xrotation Yrotation
									End Site
									{
OFFSET 0 -0.542610 0.542610
									}
								}
							}
						}
					}
				}
				JOINT RightCollar
				{
					OFFSET 0 0 0
					CHANNELS 3 Zrotation Yrotation Xrotation
					JOINT RightShoulder
					{
						OFFSET -3.06877 1.34672 -0.60964
CHANNELS 3 Zrotation Xrotation Yrotation
						JOINT RightElbow
						{
OFFSET 0 -5.083650 0.000000
CHANNELS 3 Zrotation Xrotation Yrotation
							JOINT RightWrist
							{
OFFSET 0 -3.359840 0.000000
CHANNELS 3 Zrotation Xrotation Yrotation
								JOINT rhand
								{
									OFFSET 0 0 0
CHANNELS 3 Zrotation Xrotation Yrotation
									JOINT RFingers
									{
OFFSET 0 -0.820760 0.000000
CHANNELS 3 Zrotation Xrotation Yrotation
										End Site
										{
OFFSET 0 -0.661720 0.000000
										}
									}
								}
								JOINT RThumb
								{
OFFSET 0 0.000000 0.000000
CHANNELS 3 Zrotation Xrotation Yrotation
									End Site
									{
OFFSET 0 -0.671820 0.671820
									}
								}
							}
						}
					}
				}
			}
		}
	}
}
MOTION
Frames: 12
Frame Time: 0.008333333333333333
-8.844400 17.861200 5.739500 -39.471300 83.943000 -25.864300 0.000000 0.000000 0.000000 -7.179700 -4.515100 -27.132900 2.425000 9.700300 28.011500 0.336300 -7.075600 -10.735400 0.704200 -5.363500 -14.948200 0.000000 0.000000 0.000000 13.123200 8.958700 -27.927700 -2.469000 -9.781300 28.271400 -0.266000 0.095400 -9.708600 -0.060100 1.582100 -4.352200 0.266700 1.059400 5.511100 4.377300 1.563100 5.649800 4.336200 0.794100 2.632100 4.631100 2.872700 -10.863100 -3.600000 7.679500 43.949800 -0.915100 4.101100 18.891300 -0.000000 0.000000 0.000000 -3.296300 -18.182000 -81.600100 34.917800 -44.753300 14.755400 29.616400 -39.819500 -63.316400 0.000000 0.000000 0.000000 -7.125000 0.000000 0.000000 170.598900 6.641100 -8.367000 -0.000000 0.000000 0.000000 -5.241300 -15.383500 73.886100 -37.320200 -46.399600 -16.471500 -41.758400 -53.790400 13.885700 0.000000 0.000000 0.000000 7.125000 0.000000 -0.000000 -13.953000 47.813800 0.986800
-8.844054 17.862790 5.737357 -39.398591 83.876166 -25.798848 0.000000 0.000000 0.000000 -7.159380 -4.472249 -27.109401 2.421959 9.694563 27.993184 0.336507 -7.046848 -10.731253 0.700744 -5.350575 -14.911154 0.000000 0.000000 0.000000 13.134604 9.030027 -27.867224 -2.459117 -9.763192 28.213274 -0.265516 0.131202 -9.687451 -0.036393 1.205146 -3.313813 0.442736 1.208965 5.518495 4.233817 1.766575 5.616625 4.077986 0.903509 2.587175 4.872381 2.668741 -10.885355 -3.650385 7.311392 43.951804 -1.050980 3.992866 18.886462 0.000000 0.000000 0.000000 -3.054950 -18.150483 -82.064900 34.922569 -44.756756 14.758787 29.844826 -39.599437 -63.113754 0.000000 0.000000 0.000000 -7.125000 0.000000 0.000000 170.726279 6.498930 -8.276114 0.000000 0.000000 0.000000 -4.922057 -15.266281 73.362829 -37.240787 -46.347418 -16.413996 -41.649544 -53.578285 13.899938 0.000000 0.000000 0.000000 7.125000 0.000000 0.000000 -13.844005 47.811105 0.977884
-8.843900 17.864226 5.736094 -39.260775 83.816671 -25.663740 0.000000 0.000000 0.000000 -7.146248 -4.434558 -27.090528 2.418918 9.688865 27.975022 0.338167 -7.012859 -10.745419 0.706349 -5.371485 -14.971137 0.000000 0.000000 0.000000 13.145664 9.087820 -27.822690 -2.450112 -9.746651 28.160195 -0.263197 0.123268 -9.647645 -0.026756 1.055892 -2.902596 0.547167 1.309710 5.521074 4.147679 1.903147 5.590560 3.923108 0.976294 2.554216 4.989796 2.514138 -10.888916 -3.722905 7.066540 43.942416 -1.152568 3.909328 18.873060 0.000000 0.000000 0.000000 -2.914834 -18.121834 -82.360606 34.915983 -44.752068 14.754183 30.130062 -39.338047 -62.977553 0.000000 0.000000 0.000000 -7.125000 0.000000 0.000000 170.847504 6.429665 -8.177543 0.000000 0.000000 0.000000 -4.704851 -15.189241 73.008307 -37.146846 -46.285564 -16.346055 -41.517634 -53.433495 13.895366 0.000000 0.000000 0.000000 7.125000 0.000000 0.000000 -13.709282 47.780424 0.957576
-8.843885 17.865510 5.735541 -39.068857 83.765561 -25.472198 0.000000 0.000000 0.000000 -7.140075 -4.404020 -27.072762 2.415914 9.683278 27.957218 0.340766 -6.974351 -10.771234 0.717907 -5.414622 -15.094881 0.000000 0.000000 0.000000 13.156740 9.130185 -27.791498 -2.441899 -9.731516 28.111633 -0.259367 0.077592 -9.592944 -0.030570 1.122423 -3.085758 0.583151 1.363663 5.519121 4.115237 1.975585 5.573583 3.865874 1.014011 2.534891 4.993297 2.405231 -10.882868 -3.814755 6.935157 43.926828 -1.221935 3.848497 18.856736 0.000000 0.000000 0.000000 -2.869149 -18.099666 -82.498202 34.898558 -44.739605 14.741949 30.448588 -39.054774 -62.901765 0.000000 0.000000 0.000000 -7.125000 0.000000 0.000000 170.958173 6.423081 -8.077230 0.000000 0.000000 0.000000 -4.584216 -15.151765 72.815533 -37.043365 -46.217306 -16.271284 -41.376996 -53.347837 13.876172 0.000000 0.000000 0.000000 7.125000 0.000000 0.000000 -13.563917 47.729744 0.929716
-8.843747 17.866547 5.734988 -38.864276 83.735081 -25.279298 0.000000 0.000000 0.000000 -7.143599 -4.398560 -27.032882 2.413218 9.678371 27.941390 0.341388 -6.933435 -10.770612 0.717976 -5.414829 -15.095641 0.000000 0.000000 0.000000 13.170286 9.134746 -27.764198 -2.434366 -9.717555 28.066777 -0.255289 0.011656 -9.539725 -0.051926 1.456664 -4.006510 0.530002 1.355783 5.511795 4.144749 1.963214 5.584710 3.927732 1.005648 2.548922 4.880363 2.345309 -10.923024 -3.918773 6.920643 43.936505 -1.253313 3.810829 18.874015 0.000000 0.000000 0.000000 -2.929833 -18.112522 -82.454936 34.867110 -44.717074 14.719833 30.661117 -38.868232 -62.882620 0.000000 0.000000 0.000000 -7.125000 0.000000 0.000000 171.021897 6.448308 -8.014474 0.000000 0.000000 0.000000 -4.582488 -15.174020 72.836544 -36.958353 -46.160908 -16.209979 -41.319561 -53.302083 13.861796 0.000000 0.000000 0.000000 7.125000 0.000000 0.000000 -13.503856 47.700992 0.915755
-8.843290 17.867401 5.733934 -38.794782 83.700727 -25.222305 0.000000 0.000000 0.000000 -7.130899 -4.400437 -26.988992 2.410158 9.672735 27.923284 0.341509 -6.896439 -10.764247 0.704145 -5.363080 -14.947186 0.000000 0.000000 0.000000 13.189302 9.164876 -27.726734 -2.428336 -9.706374 28.030991 -0.251530 -0.047762 -9.490335 -0.070047 1.701850 -4.682520 0.507342 1.350867 5.511807 4.157443 1.955901 5.587725 3.954132 1.001068 2.551512 4.799150 2.279096 -10.956617 -3.997998 6.874180 43.941532 -1.284783 3.768695 18.883865 0.000000 0.000000 0.000000 -2.945806 -18.118905 -82.437648 34.850065 -44.704797 14.707834 30.738696 -38.811445 -62.891414 0.000000 0.000000 0.000000 -7.125000 0.000000 0.000000 171.040091 6.471894 -7.993647 0.000000 0.000000 0.000000 -4.557426 -15.181327 72.862113 -36.907706 -46.127298 -16.173467 -41.291067 -53.243112 13.867747 0.000000 0.000000 0.000000 7.125000 0.000000 0.000000 -13.475698 47.703141 0.914464
-8.842609 17.868309 5.732621 -38.740995 83.668119 -25.175243 0.000000 0.000000 0.000000 -7.118869 -4.402814 -26.953637 2.406821 9.666531 27.903414 0.341503 -6.869546 -10.758384 0.685205 -5.292091 -14.743538 0.000000 0.000000 0.000000 13.199889 9.211311 -27.691704 -2.423612 -9.697628 28.003048 -0.248480 -0.098291 -9.451369 -0.080076 1.823779 -5.018926 0.495553 1.345585 5.510481 4.158073 1.948263 5.582598 3.961587 0.996782 2.547049 4.733996 2.210341 -10.980606 -4.064683 6.811995 43.940206 -1.316373 3.724518 18.885632 0.000000 0.000000 0.000000 -2.935822 -18.118538 -82.421598 34.833641 -44.692939 14.696256 30.626651 -38.925188 -62.894142 0.000000 0.000000 0.000000 -7.125000 0.000000 0.000000 171.009015 6.452000 -8.025666 0.000000 0.000000 0.000000 -4.521707 -15.179428 72.894707 -36.875145 -46.105649 -16.150011 -41.270557 -53.192284 13.881596 0.000000 0.000000 0.000000 7.125000 0.000000 0.000000 -13.456613 47.716680 0.917674
-8.841711 17.869760 5.731308 -38.486928 83.649388 -24.904933 0.000000 0.000000 0.000000 -7.140364 -4.392999 -26.957577 2.403158 9.659619 27.881366 0.341987 -6.872587 -10.765364 0.673940 -5.249240 -14.620928 0.000000 0.000000 0.000000 13.168787 9.269230 -27.685138 -2.420848 -9.692582 27.986806 -0.247443 -0.128356 -9.443697 -0.066323 1.659492 -4.565530 0.465696 1.333282 5.490161 4.146185 1.929740 5.562831 3.966702 0.986345 2.538340 4.667646 2.144197 -10.981573 -4.132346 6.752694 43.924241 -1.348235 3.681321 18.871671 0.000000 0.000000 0.000000 -2.915226 -18.105544 -82.360431 34.791965 -44.663012 14.666882 30.070343 -39.422403 -62.820949 0.000000 0.000000 0.000000 -7.125000 0.000000 0.000000 170.882534 6.274166 -8.173227 0.000000 0.000000 0.000000 -4.491158 -15.172033 72.944608 -36.843836 -46.084707 -16.127479 -41.224250 -53.196915 13.885812 0.000000 0.000000 0.000000 7.125000 0.000000 0.000000 -13.410098 47.713293 0.913320
-8.841130 17.871106 5.730153 -38.129081 83.647487 -24.527934 0.000000 0.000000 0.000000 -7.187314 -4.379163 -26.973212 2.399601 9.652972 27.860059 0.342470 -6.870231 -10.771287 0.685483 -5.292968 -14.746149 0.000000 0.000000 0.000000 13.121650 9.297512 -27.695507 -2.418877 -9.688913 27.975115 -0.248841 -0.137570 -9.473494 -0.050452 1.439532 -3.959244 0.403132 1.316746 5.474339 4.148216 1.904655 5.543276 4.004998 0.971411 2.526510 4.567320 2.074826 -10.984764 -4.203450 6.700961 43.910921 -1.373958 3.635213 18.859245 0.000000 0.000000 0.000000 -2.928711 -18.087100 -82.267776 34.749018 -44.632079 14.636715 29.603789 -39.835843 -62.687214 0.000000 0.000000 0.000000 -7.125000 0.000000 0.000000 170.798285 6.059764 -8.289193 0.000000 0.000000 0.000000 -4.527607 -15.165272 73.002236 -36.833219 -46.077630 -16.119819 -41.159050 -53.318714 13.832503 0.000000 0.000000 0.000000 7.125000 0.000000 0.000000 -13.337811 47.634388 0.881976
-8.840712 17.872132 5.729025 -37.845476 83.643574 -24.226378 0.000000 0.000000 0.000000 -7.225746 -4.368636 -26.984052 2.395900 9.646076 27.837987 0.343726 -6.844824 -10.782703 0.709295 -5.381965 -15.001327 0.000000 0.000000 0.000000 13.086178 9.314170 -27.709670 -2.417127 -9.685642 27.964684 -0.250344 -0.136657 -9.501424 -0.039024 1.275191 -3.506379 0.332082 1.298826 5.465205 4.168278 1.877914 5.522992 4.066780 0.955298 2.509624 4.448422 2.006692 -10.985968 -4.273579 6.658838 43.905111 -1.393990 3.590375 18.851034 0.000000 0.000000 0.000000 -2.956349 -18.062470 -82.183644 34.724877 -44.614678 14.619790 29.290244 -40.119084 -62.567457 0.000000 0.000000 0.000000 -7.125000 0.000000 0.000000 170.750780 5.888493 -8.363760 0.000000 0.000000 0.000000 -4.608843 -15.150906 73.070161 -36.843742 -46.084669 -16.127374 -41.095054 -53.463298 13.776531 0.000000 0.000000 0.000000 7.125000 0.000000 0.000000 -13.266496 47.552383 0.849755
-8.840435 17.872547 5.727850 -37.788317 83.624360 -24.155743 0.000000 0.000000 0.000000 -7.229340 -4.367806 -26.977003 2.391822 9.638473 27.813797 0.346628 -6.773705 -10.806547 0.744405 -5.511072 -15.372130 0.000000 0.000000 0.000000 13.086109 9.325367 -27.720867 -2.415330 -9.682325 27.953971 -0.250482 -0.127741 -9.500871 -0.038471 1.266068 -3.481221 0.264280 1.280718 5.467417 4.217765 1.851927 5.501014 4.157044 0.939609 2.483983 4.312057 1.943314 -10.981475 -4.339377 6.632298 43.913612 -1.405878 3.550150 18.850827 0.000000 0.000000 0.000000 -2.991943 -18.028189 -82.138304 34.741741 -44.626843 14.631678 29.244904 -40.178938 -62.517141 0.000000 0.000000 0.000000 -7.125000 0.000000 0.000000 170.754166 5.833270 -8.370533 0.000000 0.000000 0.000000 -4.741959 -15.119873 73.155035 -36.885903 -46.112799 -16.157716 -41.045982 -53.579964 13.752479 0.000000 0.000000 0.000000 7.125000 0.000000 0.000000 -13.214107 47.513126 0.833306
-8.839496 17.872901 5.726555 -37.810410 83.600023 -24.166407 0.000000 0.000000 0.000000 -7.220278 -4.366736 -26.959828 2.386840 9.629183 27.784182 0.348868 -6.718134 -10.824848 0.766980 -5.592206 -15.605765 0.000000 0.000000 0.000000 13.091946 9.359163 -27.716273 -2.412930 -9.677862 27.939703 -0.249777 -0.145825 -9.494050 -0.041956 1.321009 -3.632585 0.226009 1.270445 5.461794 4.256765 1.837029 5.486086 4.219767 0.930488 2.470575 4.204501 1.869388 -11.015011 -4.401197 6.584302 43.958032 -1.424516 3.506670 18.884067 0.000000 0.000000 0.000000 -3.027116 -18.008733 -82.113697 34.752759 -44.634788 14.639347 29.427676 -39.992359 -62.656908 0.000000 0.000000 0.000000 -7.125000 0.000000 0.000000 170.759723 5.997539 -8.335963 0.000000 0.000000 0.000000 -4.820231 -15.096554 73.209473 -36.899617 -46.121945 -16.167627 -40.994982 -53.658482 13.721978 0.000000 0.000000 0.000000 7.125000 0.000000 0.000000 -13.159126 47.465612 0.814024
